<svg id="visual" viewBox="0 0 1960 600" width="1960" height="600" xmlns="http://www.w3.org/2000/svg" xmlns:xlink="http://www.w3.org/1999/xlink" version="1.1"><rect x="0" y="0" width="1960" height="600" fill="#202731"></rect><path d="M0 208L46.7 211.2C93.3 214.3 186.7 220.7 280 211C373.3 201.3 466.7 175.7 560 167C653.3 158.3 746.7 166.7 840 168.5C933.3 170.3 1026.7 165.7 1120 176C1213.3 186.3 1306.7 211.7 1400 225.3C1493.3 239 1586.7 241 1680 226.5C1773.3 212 1866.7 181 1913.3 165.5L1960 150L1960 0L1913.3 0C1866.7 0 1773.3 0 1680 0C1586.7 0 1493.3 0 1400 0C1306.7 0 1213.3 0 1120 0C1026.7 0 933.3 0 840 0C746.7 0 653.3 0 560 0C466.7 0 373.3 0 280 0C186.7 0 93.3 0 46.7 0L0 0Z" fill="#fa7268"></path><path d="M0 141L46.7 141.5C93.3 142 186.7 143 280 141.7C373.3 140.3 466.7 136.7 560 146.2C653.3 155.7 746.7 178.3 840 178.5C933.3 178.7 1026.7 156.3 1120 148.5C1213.3 140.7 1306.7 147.3 1400 155.5C1493.3 163.7 1586.7 173.3 1680 173.2C1773.3 173 1866.7 163 1913.3 158L1960 153L1960 0L1913.3 0C1866.7 0 1773.3 0 1680 0C1586.7 0 1493.3 0 1400 0C1306.7 0 1213.3 0 1120 0C1026.7 0 933.3 0 840 0C746.7 0 653.3 0 560 0C466.7 0 373.3 0 280 0C186.7 0 93.3 0 46.7 0L0 0Z" fill="#ef5f67"></path><path d="M0 145L46.7 136C93.3 127 186.7 109 280 102.8C373.3 96.7 466.7 102.3 560 106.7C653.3 111 746.7 114 840 117.3C933.3 120.7 1026.7 124.3 1120 119.3C1213.3 114.3 1306.7 100.7 1400 97.2C1493.3 93.7 1586.7 100.3 1680 109.3C1773.3 118.3 1866.7 129.7 1913.3 135.3L1960 141L1960 0L1913.3 0C1866.7 0 1773.3 0 1680 0C1586.7 0 1493.3 0 1400 0C1306.7 0 1213.3 0 1120 0C1026.7 0 933.3 0 840 0C746.7 0 653.3 0 560 0C466.7 0 373.3 0 280 0C186.7 0 93.3 0 46.7 0L0 0Z" fill="#e34c67"></path><path d="M0 62L46.7 66.7C93.3 71.3 186.7 80.7 280 85.3C373.3 90 466.7 90 560 84.8C653.3 79.7 746.7 69.3 840 72.3C933.3 75.3 1026.7 91.7 1120 99C1213.3 106.3 1306.7 104.7 1400 101.5C1493.3 98.3 1586.7 93.7 1680 91.8C1773.3 90 1866.7 91 1913.3 91.5L1960 92L1960 0L1913.3 0C1866.7 0 1773.3 0 1680 0C1586.7 0 1493.3 0 1400 0C1306.7 0 1213.3 0 1120 0C1026.7 0 933.3 0 840 0C746.7 0 653.3 0 560 0C466.7 0 373.3 0 280 0C186.7 0 93.3 0 46.7 0L0 0Z" fill="#d53867"></path><path d="M0 39L46.7 41.8C93.3 44.7 186.7 50.3 280 54.8C373.3 59.3 466.7 62.7 560 57.5C653.3 52.3 746.7 38.7 840 39C933.3 39.3 1026.7 53.7 1120 61.2C1213.3 68.7 1306.7 69.3 1400 65.2C1493.3 61 1586.7 52 1680 51.5C1773.3 51 1866.7 59 1913.3 63L1960 67L1960 0L1913.3 0C1866.7 0 1773.3 0 1680 0C1586.7 0 1493.3 0 1400 0C1306.7 0 1213.3 0 1120 0C1026.7 0 933.3 0 840 0C746.7 0 653.3 0 560 0C466.7 0 373.3 0 280 0C186.7 0 93.3 0 46.7 0L0 0Z" fill="#c62368"></path></svg>