<svg width="1960" height="600" xmlns="http://www.w3.org/2000/svg" version="1.1">

 <g>
  <title>Layer 1</title>
  <rect stroke="null" id="svg_1" fill="#202731" height="244" width="1960" y="355" x="1"/>
  <path id="svg_2" fill="#c62368" d="m0,480l65.3,-2.8c65.4,-2.9 196,-8.5 326.7,-22c130.7,-13.5 261.3,-34.9 392,-39.5c130.7,-4.7 261.3,7.3 392,16.8c130.7,9.5 261.3,16.5 392,21.2c130.7,4.6 261.3,7 326.7,8.1l65.3,1.2l0,138l-65.3,0c-65.4,0 -196,0 -326.7,0c-130.7,0 -261.3,0 -392,0c-130.7,0 -261.3,0 -392,0c-130.7,0 -261.3,0 -392,0c-130.7,0 -261.3,0 -326.7,0l-65.3,0l0,-121z"/>
  <path id="svg_3" fill="#d53867" d="m0,501l65.3,-14c65.4,-14 196,-42 326.7,-52c130.7,-10 261.3,-2 392,5.8c130.7,7.9 261.3,15.5 392,9.4c130.7,-6.2 261.3,-26.2 392,-35.5c130.7,-9.4 261.3,-8 326.7,-7.4l65.3,0.7l0,193l-65.3,0c-65.4,0 -196,0 -326.7,0c-130.7,0 -261.3,0 -392,0c-130.7,0 -261.3,0 -392,0c-130.7,0 -261.3,0 -392,0c-130.7,0 -261.3,0 -326.7,0l-65.3,0l0,-100z"/>
  <path id="svg_4" fill="#e34c67" d="m0,463l65.3,11.8c65.4,11.9 196,35.5 326.7,37c130.7,1.5 261.3,-19.1 392,-19.6c130.7,-0.5 261.3,19.1 392,13.8c130.7,-5.3 261.3,-35.7 392,-38c130.7,-2.3 261.3,23.3 326.7,36.2l65.3,12.8l0,84l-65.3,0c-65.4,0 -196,0 -326.7,0c-130.7,0 -261.3,0 -392,0c-130.7,0 -261.3,0 -392,0c-130.7,0 -261.3,0 -392,0c-130.7,0 -261.3,0 -326.7,0l-65.3,0l0,-138z"/>
  <path id="svg_5" fill="#ef5f67" d="m0,490l65.3,1.8c65.4,1.9 196,5.5 326.7,14c130.7,8.5 261.3,21.9 392,31.2c130.7,9.3 261.3,14.7 392,8c130.7,-6.7 261.3,-25.3 392,-28.8c130.7,-3.5 261.3,8.1 326.7,14l65.3,5.8l0,65l-65.3,0c-65.4,0 -196,0 -326.7,0c-130.7,0 -261.3,0 -392,0c-130.7,0 -261.3,0 -392,0c-130.7,0 -261.3,0 -392,0c-130.7,0 -261.3,0 -326.7,0l-65.3,0l0,-111z"/>
  <path id="svg_6" fill="#fa7268" d="m0,574l65.3,-6c65.4,-6 196,-18 326.7,-20.2c130.7,-2.1 261.3,5.5 392,2.7c130.7,-2.8 261.3,-16.2 392,-18.3c130.7,-2.2 261.3,6.8 392,15.6c130.7,8.9 261.3,17.5 326.7,21.9l65.3,4.3l0,27l-65.3,0c-65.4,0 -196,0 -326.7,0c-130.7,0 -261.3,0 -392,0c-130.7,0 -261.3,0 -392,0c-130.7,0 -261.3,0 -392,0c-130.7,0 -261.3,0 -326.7,0l-65.3,0l0,-27z"/>
 </g>
</svg>