<?xml version="1.0" encoding="UTF-8" standalone="no" ?>
<!DOCTYPE svg PUBLIC "-//W3C//DTD SVG 1.1//EN" "http://www.w3.org/Graphics/SVG/1.1/DTD/svg11.dtd">
<svg xmlns="http://www.w3.org/2000/svg" xmlns:xlink="http://www.w3.org/1999/xlink" version="1.1" width="1960" height="1080" viewBox="981.94 503.78 1960 1080" xml:space="preserve">
<desc>Created with Fabric.js 5.2.4</desc>
<defs>
</defs>
<rect x="0" y="0" width="100%" height="100%" fill="transparent"></rect>
<g transform="matrix(1 0 0 1 980 540)" id="6ef26ae2-f6df-43fa-8b20-d52fefd07478"  >
<rect style="stroke: none; stroke-width: 1; stroke-dasharray: none; stroke-linecap: butt; stroke-dashoffset: 0; stroke-linejoin: miter; stroke-miterlimit: 4; fill: rgb(255,255,255); fill-rule: nonzero; opacity: 1; visibility: hidden;" vector-effect="non-scaling-stroke"  x="-980" y="-540" rx="0" ry="0" width="1960" height="1080" />
</g>
<g transform="matrix(Infinity NaN NaN Infinity 0 0)" id="dbb6d146-9c1b-4e78-b823-3e8b194e74e5"  >
</g>
<g transform="matrix(1 0 0 1 1960.22 1175.18)"  >
<path style="stroke: none; stroke-width: 1; stroke-dasharray: none; stroke-linecap: butt; stroke-dashoffset: 0; stroke-linejoin: miter; stroke-miterlimit: 4; fill: rgb(198,35,104); fill-rule: nonzero; opacity: 1;" vector-effect="non-scaling-stroke"  transform=" translate(-980, -186)" d="M 0 372 L 65.3 337.3 C 130.7 302.7 261.3 233.3 392 204.5 C 522.7 175.7 653.3 187.3 784 223.8 C 914.7 260.3 1045.3 321.7 1176 316.3 C 1306.7 311 1437.3 239 1568 219 C 1698.7 199 1829.3 231 1894.7 247 L 1960 263 L 1960 0 L 1894.7 0 C 1829.3 0 1698.7 0 1568 0 C 1437.3 0 1306.7 0 1176 0 C 1045.3 0 914.7 0 784 0 C 653.3 0 522.7 0 392 0 C 261.3 0 130.7 0 65.3 0 L 0 0 Z" stroke-linecap="round" />
</g>
<g transform="matrix(1 0 0 1 1960.22 1119.68)"  >
<path style="stroke: none; stroke-width: 1; stroke-dasharray: none; stroke-linecap: butt; stroke-dashoffset: 0; stroke-linejoin: miter; stroke-miterlimit: 4; fill: rgb(250,114,104); fill-rule: nonzero; opacity: 1;" vector-effect="non-scaling-stroke"  transform=" translate(-980, -130.5)" d="M 0 261 L 65.3 231.5 C 130.7 202 261.3 143 392 145.2 C 522.7 147.3 653.3 210.7 784 212.7 C 914.7 214.7 1045.3 155.3 1176 139 C 1306.7 122.7 1437.3 149.3 1568 164 C 1698.7 178.7 1829.3 181.3 1894.7 182.7 L 1960 184 L 1960 0 L 1894.7 0 C 1829.3 0 1698.7 0 1568 0 C 1437.3 0 1306.7 0 1176 0 C 1045.3 0 914.7 0 784 0 C 653.3 0 522.7 0 392 0 C 261.3 0 130.7 0 65.3 0 L 0 0 Z" stroke-linecap="round" />
</g>
<g transform="matrix(1 0 0 1 1959.78 899.79)" id="svg_2"  >
<path style="stroke: none; stroke-width: 1; stroke-dasharray: none; stroke-linecap: butt; stroke-dashoffset: 0; stroke-linejoin: miter; stroke-miterlimit: 4; fill: rgb(198,35,104); fill-rule: nonzero; opacity: 1;" vector-effect="non-scaling-stroke"  transform=" translate(-980, -507.82)" d="M 0 480 L 65.3 477.2 C 130.7 474.3 261.3 468.7 392 455.2 C 522.7 441.7 653.3 420.3 784 415.7 C 914.7 411 1045.3 423 1176 432.5 C 1306.7 442 1437.3 449 1568 453.7 C 1698.7 458.3 1829.3 460.7 1894.7 461.8 L 1960 463 L 1960 601 L 1894.7 601 C 1829.3 601 1698.7 601 1568 601 C 1437.3 601 1306.7 601 1176 601 C 1045.3 601 914.7 601 784 601 C 653.3 601 522.7 601 392 601 C 261.3 601 130.7 601 65.30000000000001 601 L 1.4210854715202004e-14 601 L 1.4210854715202004e-14 480 z" stroke-linecap="round" />
</g>
<g transform="matrix(1 0 0 1 1959.78 895.89)" id="svg_3"  >
<path style="stroke: none; stroke-width: 1; stroke-dasharray: none; stroke-linecap: butt; stroke-dashoffset: 0; stroke-linejoin: miter; stroke-miterlimit: 4; fill: rgb(213,56,103); fill-rule: nonzero; opacity: 1;" vector-effect="non-scaling-stroke"  transform=" translate(-980, -503.93)" d="M 0 501 L 65.3 487 C 130.7 473 261.3 445 392 435 C 522.7 425 653.3 433 784 440.8 C 914.7 448.7 1045.3 456.3 1176 450.2 C 1306.7 444 1437.3 424 1568 414.7 C 1698.7 405.3 1829.3 406.7 1894.7 407.3 L 1960 408 L 1960 601 L 1894.7 601 C 1829.3 601 1698.7 601 1568 601 C 1437.3 601 1306.7 601 1176 601 C 1045.3 601 914.7 601 784 601 C 653.3 601 522.7 601 392 601 C 261.3 601 130.7 601 65.30000000000001 601 L 1.4210854715202004e-14 601 L 1.4210854715202004e-14 501 z" stroke-linecap="round" />
</g>
<g transform="matrix(1 0 0 1 1959.78 923.97)" id="svg_4"  >
<path style="stroke: none; stroke-width: 1; stroke-dasharray: none; stroke-linecap: butt; stroke-dashoffset: 0; stroke-linejoin: miter; stroke-miterlimit: 4; fill: rgb(227,76,103); fill-rule: nonzero; opacity: 1;" vector-effect="non-scaling-stroke"  transform=" translate(-980, -532)" d="M 0 463 L 65.3 474.8 C 130.7 486.7 261.3 510.3 392 511.8 C 522.7 513.3 653.3 492.7 784 492.2 C 914.7 491.7 1045.3 511.3 1176 506 C 1306.7 500.7 1437.3 470.3 1568 468 C 1698.7 465.7 1829.3 491.3 1894.7 504.2 L 1960 517 L 1960 601 L 1894.7 601 C 1829.3 601 1698.7 601 1568 601 C 1437.3 601 1306.7 601 1176 601 C 1045.3 601 914.7 601 784 601 C 653.3 601 522.7 601 392 601 C 261.3 601 130.7 601 65.30000000000001 601 L 1.4210854715202004e-14 601 L 1.4210854715202004e-14 463 z" stroke-linecap="round" />
</g>
<g transform="matrix(1 0 0 1 1959.78 937.47)" id="svg_5"  >
<path style="stroke: none; stroke-width: 1; stroke-dasharray: none; stroke-linecap: butt; stroke-dashoffset: 0; stroke-linejoin: miter; stroke-miterlimit: 4; fill: rgb(239,95,103); fill-rule: nonzero; opacity: 1;" vector-effect="non-scaling-stroke"  transform=" translate(-980, -545.5)" d="M 0 490 L 65.3 491.8 C 130.7 493.7 261.3 497.3 392 505.8 C 522.7 514.3 653.3 527.7 784 537 C 914.7 546.3 1045.3 551.7 1176 545 C 1306.7 538.3 1437.3 519.7 1568 516.2 C 1698.7 512.7 1829.3 524.3000000000001 1894.7 530.2 L 1960 536 L 1960 601 L 1894.7 601 C 1829.3 601 1698.7 601 1568 601 C 1437.3 601 1306.7 601 1176 601 C 1045.3 601 914.7 601 784 601 C 653.3 601 522.7 601 392 601 C 261.3 601 130.7 601 65.30000000000001 601 L 1.4210854715202004e-14 601 L 1.4210854715202004e-14 490 z" stroke-linecap="round" />
</g>
<g transform="matrix(1 0 0 1 1959.78 960.4)" id="svg_6"  >
<path style="stroke: none; stroke-width: 1; stroke-dasharray: none; stroke-linecap: butt; stroke-dashoffset: 0; stroke-linejoin: miter; stroke-miterlimit: 4; fill: rgb(250,114,104); fill-rule: nonzero; opacity: 1;" vector-effect="non-scaling-stroke"  transform=" translate(-980, -566.43)" d="M 0 574 L 65.3 568 C 130.7 562 261.3 550 392 547.8 C 522.7 545.6999999999999 653.3 553.3 784 550.5 C 914.7 547.7 1045.3 534.3 1176 532.2 C 1306.7 530 1437.3 539 1568 547.8000000000001 C 1698.7 556.7 1829.3 565.3000000000001 1894.7 569.7 L 1960 574 L 1960 601 L 1894.7 601 C 1829.3 601 1698.7 601 1568 601 C 1437.3 601 1306.7 601 1176 601 C 1045.3 601 914.7 601 784 601 C 653.3 601 522.7 601 392 601 C 261.3 601 130.7 601 65.30000000000001 601 L 1.4210854715202004e-14 601 L 1.4210854715202004e-14 574 z" stroke-linecap="round" />
</g>
</svg>