<svg id="visual" viewBox="0 0 1960 600" width="1960" height="600" xmlns="http://www.w3.org/2000/svg" xmlns:xlink="http://www.w3.org/1999/xlink" version="1.1"><rect x="0" y="0" width="1960" height="600" fill="#202731"></rect><path d="M0 372L65.3 337.3C130.7 302.7 261.3 233.3 392 204.5C522.7 175.7 653.3 187.3 784 223.8C914.7 260.3 1045.3 321.7 1176 316.3C1306.7 311 1437.3 239 1568 219C1698.7 199 1829.3 231 1894.7 247L1960 263L1960 0L1894.7 0C1829.3 0 1698.7 0 1568 0C1437.3 0 1306.7 0 1176 0C1045.3 0 914.7 0 784 0C653.3 0 522.7 0 392 0C261.3 0 130.7 0 65.3 0L0 0Z" fill="#c62368"></path><path d="M0 261L65.3 231.5C130.7 202 261.3 143 392 145.2C522.7 147.3 653.3 210.7 784 212.7C914.7 214.7 1045.3 155.3 1176 139C1306.7 122.7 1437.3 149.3 1568 164C1698.7 178.7 1829.3 181.3 1894.7 182.7L1960 184L1960 0L1894.7 0C1829.3 0 1698.7 0 1568 0C1437.3 0 1306.7 0 1176 0C1045.3 0 914.7 0 784 0C653.3 0 522.7 0 392 0C261.3 0 130.7 0 65.3 0L0 0Z" fill="#fa7268"></path></svg>