<svg width="1960" height="600" xmlns="http://www.w3.org/2000/svg" version="1.1">

 <g>
  <title>Layer 1</title>
  <path id="svg_2" fill="#fa7268" d="m0,208l46.7,3.2c46.6,3.1 140,9.5 233.3,-0.2c93.3,-9.7 186.7,-35.3 280,-44c93.3,-8.7 186.7,-0.3 280,1.5c93.3,1.8 186.7,-2.8 280,7.5c93.3,10.3 186.7,35.7 280,49.3c93.3,13.7 186.7,15.7 280,1.2c93.3,-14.5 186.7,-45.5 233.3,-61l46.7,-15.5l0,-150l-46.7,0c-46.6,0 -140,0 -233.3,0c-93.3,0 -186.7,0 -280,0c-93.3,0 -186.7,0 -280,0c-93.3,0 -186.7,0 -280,0c-93.3,0 -186.7,0 -280,0c-93.3,0 -186.7,0 -280,0c-93.3,0 -186.7,0 -233.3,0l-46.7,0l0,208z"/>
  <path id="svg_3" fill="#ef5f67" d="m0,141l46.7,0.5c46.6,0.5 140,1.5 233.3,0.2c93.3,-1.4 186.7,-5 280,4.5c93.3,9.5 186.7,32.1 280,32.3c93.3,0.2 186.7,-22.2 280,-30c93.3,-7.8 186.7,-1.2 280,7c93.3,8.2 186.7,17.8 280,17.7c93.3,-0.2 186.7,-10.2 233.3,-15.2l46.7,-5l0,-153l-46.7,0c-46.6,0 -140,0 -233.3,0c-93.3,0 -186.7,0 -280,0c-93.3,0 -186.7,0 -280,0c-93.3,0 -186.7,0 -280,0c-93.3,0 -186.7,0 -280,0c-93.3,0 -186.7,0 -280,0c-93.3,0 -186.7,0 -233.3,0l-46.7,0l0,141z"/>
  <path id="svg_4" fill="#e34c67" d="m0,145l46.7,-9c46.6,-9 140,-27 233.3,-33.2c93.3,-6.1 186.7,-0.5 280,3.9c93.3,4.3 186.7,7.3 280,10.6c93.3,3.4 186.7,7 280,2c93.3,-5 186.7,-18.6 280,-22.1c93.3,-3.5 186.7,3.1 280,12.1c93.3,9 186.7,20.4 233.3,26l46.7,5.7l0,-141l-46.7,0c-46.6,0 -140,0 -233.3,0c-93.3,0 -186.7,0 -280,0c-93.3,0 -186.7,0 -280,0c-93.3,0 -186.7,0 -280,0c-93.3,0 -186.7,0 -280,0c-93.3,0 -186.7,0 -280,0c-93.3,0 -186.7,0 -233.3,0l-46.7,0l0,145z"/>
  <path id="svg_5" fill="#d53867" d="m0,62l46.7,4.7c46.6,4.6 140,14 233.3,18.6c93.3,4.7 186.7,4.7 280,-0.5c93.3,-5.1 186.7,-15.5 280,-12.5c93.3,3 186.7,19.4 280,26.7c93.3,7.3 186.7,5.7 280,2.5c93.3,-3.2 186.7,-7.8 280,-9.7c93.3,-1.8 186.7,-0.8 233.3,-0.3l46.7,0.5l0,-92l-46.7,0c-46.6,0 -140,0 -233.3,0c-93.3,0 -186.7,0 -280,0c-93.3,0 -186.7,0 -280,0c-93.3,0 -186.7,0 -280,0c-93.3,0 -186.7,0 -280,0c-93.3,0 -186.7,0 -280,0c-93.3,0 -186.7,0 -233.3,0l-46.7,0l0,62z"/>
  <path id="svg_6" fill="#c62368" d="m0,39l46.7,2.8c46.6,2.9 140,8.5 233.3,13c93.3,4.5 186.7,7.9 280,2.7c93.3,-5.2 186.7,-18.8 280,-18.5c93.3,0.3 186.7,14.7 280,22.2c93.3,7.5 186.7,8.1 280,4c93.3,-4.2 186.7,-13.2 280,-13.7c93.3,-0.5 186.7,7.5 233.3,11.5l46.7,4l0,-67l-46.7,0c-46.6,0 -140,0 -233.3,0c-93.3,0 -186.7,0 -280,0c-93.3,0 -186.7,0 -280,0c-93.3,0 -186.7,0 -280,0c-93.3,0 -186.7,0 -280,0c-93.3,0 -186.7,0 -280,0c-93.3,0 -186.7,0 -233.3,0l-46.7,0l0,39z"/>
 </g>
</svg>