<svg id="visual" viewBox="0 0 1960 600" width="1960" height="600" xmlns="http://www.w3.org/2000/svg" xmlns:xlink="http://www.w3.org/1999/xlink" version="1.1"><path d="M0 49L29.7 59C59.3 69 118.7 89 178 95C237.3 101 296.7 93 356.2 83C415.7 73 475.3 61 534.8 50C594.3 39 653.7 29 713 26C772.3 23 831.7 27 891 26C950.3 25 1009.7 19 1069 17C1128.3 15 1187.7 17 1247 19C1306.3 21 1365.7 23 1425.2 43C1484.7 63 1544.3 101 1603.8 119C1663.3 137 1722.7 135 1782 120C1841.3 105 1900.7 77 1930.3 63L1960 49L1960 0L1930.3 0C1900.7 0 1841.3 0 1782 0C1722.7 0 1663.3 0 1603.8 0C1544.3 0 1484.7 0 1425.2 0C1365.7 0 1306.3 0 1247 0C1187.7 0 1128.3 0 1069 0C1009.7 0 950.3 0 891 0C831.7 0 772.3 0 713 0C653.7 0 594.3 0 534.8 0C475.3 0 415.7 0 356.2 0C296.7 0 237.3 0 178 0C118.7 0 59.3 0 29.7 0L0 0Z" fill="#202731"></path><path d="M0 121L29.7 141C59.3 161 118.7 201 178 198C237.3 195 296.7 149 356.2 119C415.7 89 475.3 75 534.8 77C594.3 79 653.7 97 713 120C772.3 143 831.7 171 891 176C950.3 181 1009.7 163 1069 140C1128.3 117 1187.7 89 1247 77C1306.3 65 1365.7 69 1425.2 87C1484.7 105 1544.3 137 1603.8 172C1663.3 207 1722.7 245 1782 235C1841.3 225 1900.7 167 1930.3 138L1960 109L1960 47L1930.3 61C1900.7 75 1841.3 103 1782 118C1722.7 133 1663.3 135 1603.8 117C1544.3 99 1484.7 61 1425.2 41C1365.7 21 1306.3 19 1247 17C1187.7 15 1128.3 13 1069 15C1009.7 17 950.3 23 891 24C831.7 25 772.3 21 713 24C653.7 27 594.3 37 534.8 48C475.3 59 415.7 71 356.2 81C296.7 91 237.3 99 178 93C118.7 87 59.3 67 29.7 57L0 47Z" fill="#37385e"></path><path d="M0 211L29.7 245C59.3 279 118.7 347 178 366C237.3 385 296.7 355 356.2 317C415.7 279 475.3 233 534.8 235C594.3 237 653.7 287 713 297C772.3 307 831.7 277 891 269C950.3 261 1009.7 275 1069 283C1128.3 291 1187.7 293 1247 297C1306.3 301 1365.7 307 1425.2 294C1484.7 281 1544.3 249 1603.8 246C1663.3 243 1722.7 269 1782 251C1841.3 233 1900.7 171 1930.3 140L1960 109L1960 107L1930.3 136C1900.7 165 1841.3 223 1782 233C1722.7 243 1663.3 205 1603.8 170C1544.3 135 1484.7 103 1425.2 85C1365.7 67 1306.3 63 1247 75C1187.7 87 1128.3 115 1069 138C1009.7 161 950.3 179 891 174C831.7 169 772.3 141 713 118C653.7 95 594.3 77 534.8 75C475.3 73 415.7 87 356.2 117C296.7 147 237.3 193 178 196C118.7 199 59.3 159 29.7 139L0 119Z" fill="#703d7e"></path><path d="M0 469L29.7 486C59.3 503 118.7 537 178 546C237.3 555 296.7 539 356.2 536C415.7 533 475.3 543 534.8 543C594.3 543 653.7 533 713 513C772.3 493 831.7 463 891 466C950.3 469 1009.7 505 1069 532C1128.3 559 1187.7 577 1247 577C1306.3 577 1365.7 559 1425.2 551C1484.7 543 1544.3 545 1603.8 514C1663.3 483 1722.7 419 1782 424C1841.3 429 1900.7 503 1930.3 540L1960 577L1960 107L1930.3 138C1900.7 169 1841.3 231 1782 249C1722.7 267 1663.3 241 1603.8 244C1544.3 247 1484.7 279 1425.2 292C1365.7 305 1306.3 299 1247 295C1187.7 291 1128.3 289 1069 281C1009.7 273 950.3 259 891 267C831.7 275 772.3 305 713 295C653.7 285 594.3 235 534.8 233C475.3 231 415.7 277 356.2 315C296.7 353 237.3 383 178 364C118.7 345 59.3 277 29.7 243L0 209Z" fill="#b83183"></path><path d="M0 601L29.7 601C59.3 601 118.7 601 178 601C237.3 601 296.7 601 356.2 601C415.7 601 475.3 601 534.8 601C594.3 601 653.7 601 713 601C772.3 601 831.7 601 891 601C950.3 601 1009.7 601 1069 601C1128.3 601 1187.7 601 1247 601C1306.3 601 1365.7 601 1425.2 601C1484.7 601 1544.3 601 1603.8 601C1663.3 601 1722.7 601 1782 601C1841.3 601 1900.7 601 1930.3 601L1960 601L1960 575L1930.3 538C1900.7 501 1841.3 427 1782 422C1722.7 417 1663.3 481 1603.8 512C1544.3 543 1484.7 541 1425.2 549C1365.7 557 1306.3 575 1247 575C1187.7 575 1128.3 557 1069 530C1009.7 503 950.3 467 891 464C831.7 461 772.3 491 713 511C653.7 531 594.3 541 534.8 541C475.3 541 415.7 531 356.2 534C296.7 537 237.3 553 178 544C118.7 535 59.3 501 29.7 484L0 467Z" fill="#f81c68"></path></svg>